<?xml version="1.0" standalone="no"?>
<!DOCTYPE svg PUBLIC "-//W3C//DTD SVG 20010904//EN"
 "http://www.w3.org/TR/2001/REC-SVG-20010904/DTD/svg10.dtd">
<svg version="1.0" xmlns="http://www.w3.org/2000/svg"
 width="16.000000pt" height="16.000000pt" viewBox="0 0 16.000000 16.000000"
 preserveAspectRatio="xMidYMid meet">
<metadata>
Created by potrace 1.11, written by Peter Selinger 2001-2013
</metadata>
<g transform="translate(0.000000,16.000000) scale(0.002548,-0.002548)"
fill="#000000" stroke="none">
<path d="M1621 5876 c2 -2 49 -9 104 -16 199 -23 563 -108 654 -153 25 -13 49
-64 105 -232 69 -203 117 -417 138 -608 6 -62 14 -115 17 -119 6 -7 128 15
138 26 3 3 -6 54 -21 113 -61 240 -141 451 -261 680 l-63 121 36 -13 c72 -25
228 -97 322 -147 535 -287 961 -717 1249 -1260 l62 -117 -43 -5 c-24 -3 -92
-10 -153 -16 -104 -11 -353 -54 -362 -64 -3 -2 31 -49 74 -105 l78 -100 188 6
c142 5 187 3 187 -6 0 -6 -17 -35 -38 -64 -21 -29 -62 -89 -91 -135 l-54 -83
65 -127 c36 -70 76 -153 89 -184 12 -32 25 -58 28 -58 3 0 29 37 58 83 69 111
174 257 184 257 13 0 190 -205 276 -321 45 -61 106 -148 134 -195 29 -46 54
-82 57 -80 8 9 -19 297 -39 416 -229 1359 -1341 2384 -2714 2500 -117 10 -413
14 -404 6z"/>
<path d="M3115 4719 c-229 -20 -505 -81 -730 -160 -1116 -393 -1895 -1402
-1995 -2584 -10 -117 -14 -413 -6 -404 2 2 9 49 16 104 23 199 108 563 153
654 13 25 64 49 232 105 203 69 417 117 608 138 62 6 115 14 119 17 7 6 -15
128 -26 138 -3 3 -54 -6 -113 -21 -240 -61 -451 -141 -680 -261 l-121 -63 13
36 c28 80 89 212 142 312 289 542 718 969 1265 1259 l117 62 5 -43 c3 -24 10
-92 16 -153 11 -104 54 -353 64 -362 2 -3 49 31 105 74 l100 78 -6 188 c-5
142 -3 187 6 187 6 0 35 -17 64 -38 29 -21 89 -62 135 -92 l84 -53 126 65 c70
36 153 76 185 89 31 12 57 25 56 28 0 3 -64 48 -142 99 -78 51 -155 104 -172
118 l-30 25 65 60 c145 134 298 249 526 396 16 10 11 12 -31 11 -27 0 -95 -5
-150 -9z"/>
<path d="M5917 4580 c-17 -132 -38 -258 -63 -367 -30 -135 -91 -334 -107 -349
-13 -13 -142 -63 -252 -99 -188 -61 -401 -108 -578 -127 -62 -6 -115 -14 -119
-17 -7 -6 15 -128 26 -138 3 -3 54 6 113 21 240 61 451 141 680 261 l121 63
-13 -36 c-28 -80 -89 -212 -142 -312 -289 -542 -718 -969 -1265 -1259 l-117
-62 -5 43 c-3 24 -10 93 -16 153 -11 104 -54 353 -64 362 -2 3 -49 -31 -105
-74 l-100 -78 6 -187 c5 -152 4 -188 -7 -188 -7 0 -36 17 -64 38 -28 20 -88
62 -134 91 l-83 54 -127 -65 c-70 -36 -153 -76 -184 -89 -32 -12 -58 -25 -58
-28 0 -3 37 -29 83 -58 111 -69 257 -174 257 -184 0 -13 -205 -190 -321 -276
-61 -45 -148 -106 -195 -134 -46 -29 -82 -54 -80 -57 9 -8 297 19 416 39 1366
230 2392 1351 2500 2729 6 80 10 201 8 270 -3 118 -3 122 -11 60z"/>
<path d="M3215 4241 c4 -7 51 -71 104 -141 237 -317 409 -678 505 -1062 l42
-168 87 57 c73 48 86 60 81 77 -39 133 -187 442 -289 606 -118 189 -308 424
-470 580 -37 36 -64 59 -60 51z"/>
<path d="M3180 3957 c-402 -155 -740 -372 -1044 -670 -72 -71 -125 -125 -117
-121 7 3 71 50 141 103 317 237 678 409 1062 505 l168 42 -57 87 c-31 48 -59
87 -62 87 -3 -1 -44 -15 -91 -33z"/>
<path d="M2543 3743 c-6 -27 -10 -49 -9 -50 3 -3 86 52 86 57 0 6 -54 40 -62
40 -3 0 -10 -21 -15 -47z"/>
<path d="M3278 3687 c-92 -24 -170 -46 -173 -49 -9 -9 144 -65 297 -108 160
-45 208 -55 208 -44 0 5 -26 61 -58 124 -48 98 -61 115 -82 117 -14 1 -100
-17 -192 -40z"/>
<path d="M3751 3710 c9 -14 22 -35 30 -47 18 -29 21 -29 42 6 22 38 23 38 -19
45 -19 4 -43 10 -52 14 -16 6 -16 4 -1 -18z"/>
<path d="M2650 3502 l-115 -57 2 -40 c3 -42 69 -320 83 -344 10 -18 60 114
110 291 45 160 55 208 44 208 -5 0 -61 -26 -124 -58z"/>
<path d="M2357 3283 c-73 -48 -86 -60 -81 -77 39 -133 187 -442 289 -606 118
-189 308 -424 470 -580 81 -78 79 -73 -44 90 -237 317 -409 678 -505 1062
l-42 168 -87 -57z"/>
<path d="M1531 3235 c-1 -16 4 -84 9 -150 124 -1465 1280 -2621 2745 -2745
117 -10 413 -14 404 -6 -2 2 -49 9 -104 16 -199 23 -563 108 -654 153 -25 13
-49 64 -105 232 -69 203 -117 417 -138 608 -6 62 -14 115 -17 119 -6 7 -128
-15 -138 -26 -3 -3 6 -54 21 -113 61 -240 141 -451 261 -680 l63 -121 -36 13
c-72 25 -228 97 -322 147 -535 287 -961 717 -1249 1260 l-62 117 43 5 c24 3
93 10 153 16 104 11 353 54 362 64 3 2 -31 49 -74 105 l-78 100 -187 -6 c-143
-5 -188 -3 -188 6 0 6 17 35 38 64 21 29 62 89 91 135 l54 83 -65 127 c-36 70
-76 153 -89 185 -12 31 -25 57 -28 56 -3 0 -48 -64 -99 -142 -51 -78 -104
-155 -118 -172 l-25 -30 -60 65 c-134 145 -249 298 -396 526 -11 17 -12 16
-12 -11z"/>
<path d="M3651 3079 c-53 -138 -132 -429 -117 -429 3 0 61 27 127 60 l121 61
-7 42 c-10 58 -75 319 -85 336 -5 9 -18 -15 -39 -70z"/>
<path d="M4158 2948 c-326 -245 -682 -415 -1070 -512 l-168 -42 57 -87 c48
-73 60 -86 77 -81 133 39 442 187 606 289 187 117 417 303 580 469 35 36 62
66 60 66 -3 0 -67 -46 -142 -102z"/>
<path d="M2700 2724 c0 -5 26 -61 58 -124 l57 -115 40 2 c42 3 320 69 344 83
18 10 -114 60 -291 110 -160 45 -208 55 -208 44z"/>
<path d="M2486 2539 c-10 -17 -16 -32 -14 -33 5 -5 92 -25 95 -23 3 4 -51 87
-57 87 -3 0 -14 -14 -24 -31z"/>
<path d="M3732 2492 c-23 -15 -42 -29 -42 -32 0 -7 60 -43 64 -38 5 5 25 92
23 95 -2 1 -22 -10 -45 -25z"/>
<path d="M4732 1328 c6 -18 28 -21 28 -4 0 9 -7 16 -16 16 -9 0 -14 -5 -12
-12z"/>
<path d="M4737 1283 c-4 -3 -7 -36 -7 -73 0 -38 -5 -71 -12 -78 -13 -13 -1
-16 26 -6 13 5 16 22 16 85 0 73 -6 90 -23 72z"/>
<path d="M4797 1283 c-4 -3 -7 -17 -7 -29 0 -20 6 -23 43 -26 34 -2 42 -7 42
-23 0 -16 -9 -21 -40 -26 l-40 -6 46 -2 c50 -1 69 11 69 46 0 21 -5 23 -45 23
-38 0 -45 3 -45 19 0 15 8 21 38 24 35 3 35 4 -9 5 -25 1 -49 -1 -52 -5z"/>
<path d="M4657 1194 c-8 -8 1 -24 14 -24 5 0 9 7 9 15 0 15 -12 20 -23 9z"/>
</g>
</svg>
